<svg width="41" height="41" viewBox="0 0 41 41" fill="none" xmlns="http://www.w3.org/2000/svg">
<rect width="41" height="41" rx="12" fill="url(#paint0_linear_278_38)"/>
<path d="M13 12.8571H14.7143V14.5714H13V12.8571ZM14.7143 12.8571H16.4286V14.5714H14.7143V12.8571ZM14.7143 14.5714H16.4286V16.2857H14.7143V14.5714ZM14.7143 16.2857H16.4286V18H14.7143V16.2857ZM13 16.2857H14.7143V18H13V16.2857ZM13 14.5714H14.7143V16.2857H13V14.5714ZM13 18H14.7143V19.7143H13V18ZM13 19.7143H14.7143V21.4286H13V19.7143ZM14.7143 19.7143H16.4286V21.4286H14.7143V19.7143ZM14.7143 18H16.4286V19.7143H14.7143V18ZM14.7143 21.4286H16.4286V23.1429H14.7143V21.4286ZM16.4286 21.4286H18.1429V23.1429H16.4286V21.4286ZM16.4286 19.7143H18.1429V21.4286H16.4286V19.7143ZM16.4286 23.1429H18.1429V24.8571H16.4286V23.1429ZM18.1429 23.1429H19.8571V24.8571H18.1429V23.1429ZM18.1429 21.4286H19.8571V23.1429H18.1429V21.4286ZM19.8571 21.4286H21.5714V23.1429H19.8571V21.4286ZM19.8571 23.1429H21.5714V24.8571H19.8571V23.1429ZM21.5714 23.1429H23.2857V24.8571H21.5714V23.1429ZM21.5714 21.4286H23.2857V23.1429H21.5714V21.4286ZM21.5714 19.7143H23.2857V21.4286H21.5714V19.7143ZM23.2857 19.7143H25V21.4286H23.2857V19.7143ZM23.2857 21.4286H25V23.1429H23.2857V21.4286ZM23.2857 18H25V19.7143H23.2857V18ZM23.2857 16.2857H25V18H23.2857V16.2857ZM23.2857 14.5714H25V16.2857H23.2857V14.5714ZM23.2857 12.8571H25V14.5714H23.2857V12.8571ZM25 12.8571H26.7143V14.5714H25V12.8571ZM25 14.5714H26.7143V16.2857H25V14.5714ZM25 16.2857H26.7143V18H25V16.2857ZM25 18H26.7143V19.7143H25V18ZM25 19.7143H26.7143V21.4286H25V19.7143ZM18.1429 24.8571H19.8571V26.5714H18.1429V24.8571ZM18.1429 26.5714H19.8571V28.2857H18.1429V26.5714ZM18.1429 28.2857H19.8571V30H18.1429V28.2857ZM19.8571 28.2857H21.5714V30H19.8571V28.2857ZM19.8571 26.5714H21.5714V28.2857H19.8571V26.5714ZM19.8571 24.8571H21.5714V26.5714H19.8571V24.8571Z" fill="#D8CC9D"/>
<defs>
<linearGradient id="paint0_linear_278_38" x1="2" y1="32.5" x2="43.5" y2="10" gradientUnits="userSpaceOnUse">
<stop stop-color="#74273A"/>
<stop offset="0.5" stop-color="#093049" stop-opacity="0.4"/>
<stop offset="1" stop-color="#87582B"/>
</linearGradient>
</defs>
</svg>
